<svg xmlns="http://www.w3.org/2000/svg" xmlns:xlink="http://www.w3.org/1999/xlink" version="1.1" x="0px" y="0px" viewBox="0 0 100 125" enable-background="new 0 0 100 100" xml:space="preserve">
    <g>
        <path d="M49.831,46.123c9.988,0,18.114-8.126,18.114-18.114c0-9.988-8.126-18.114-18.114-18.114   c-9.988,0-18.114,8.126-18.114,18.114C31.716,37.997,39.842,46.123,49.831,46.123z M49.831,11.781   c8.949,0,16.228,7.279,16.228,16.228c0,8.948-7.279,16.228-16.228,16.228c-8.948,0-16.228-7.28-16.228-16.228   C33.603,19.061,40.883,11.781,49.831,11.781z" />
        <path d="M49.831,53.018c-10.249,0-18.586,8.336-18.586,18.586c0,10.248,8.337,18.586,18.586,18.586   c10.248,0,18.585-8.338,18.585-18.586C68.416,61.354,60.078,53.018,49.831,53.018z M56.631,83.74l-0.072,0.043   c-0.212,0.121-0.451,0.186-0.694,0.186c-0.497,0-0.959-0.266-1.206-0.695l-4.606-7.977l-3.291,3.758   c-0.157,0.18-0.261,0.35-0.348,0.57l-1.337,3.393c-0.143,0.361-0.396,0.621-0.755,0.771c-0.353,0.148-0.723,0.148-1.078,0   l-0.051-0.02c-0.355-0.15-0.607-0.406-0.751-0.76c-0.144-0.355-0.142-0.715,0.007-1.066l1.73-4.102   c0.105-0.25,0.234-0.451,0.418-0.652l2.934-3.209c0.115-0.125,0.17-0.268,0.17-0.438v-1.059l-2.124,2.066   c-0.221,0.217-0.487,0.33-0.77,0.33c-0.467,0-0.925-0.32-1.112-0.781c-0.173-0.424-0.074-0.875,0.266-1.207l3.403-3.32   c0.224-0.219,0.337-0.488,0.337-0.801c0-0.193-0.019-0.391-0.038-0.596c-0.064-0.688-0.137-1.467,0.408-2.408   c0.171-0.297,0.307-0.531,0.307-0.834v-0.209c0-0.393-0.165-0.727-0.475-0.967c-0.623-0.482-0.98-1.209-0.98-1.996   c0-1.393,1.131-2.523,2.523-2.523c1.391,0,2.523,1.131,2.523,2.523c0,0.482-0.138,0.953-0.397,1.359   c-0.135,0.209-0.194,0.414-0.194,0.66V64.1c0,0.072,0.027,0.131,0.083,0.178c0.043,0.035,0.09,0.053,0.142,0.053   c0.124-0.018,0.202-0.025,0.28-0.025c0.321,0,0.623,0.117,0.875,0.338l2.747,2.424c0.213,0.188,0.339,0.428,0.387,0.738   l0.708,4.662c0.046,0.313-0.025,0.598-0.213,0.846c-0.217,0.291-0.555,0.459-0.926,0.459c-0.592,0-1.061-0.4-1.141-0.973   l-0.438-3.145c-0.009-0.059-0.029-0.104-0.068-0.148l-1.102-1.256v5.914l4.43,7.676C57.523,82.504,57.295,83.357,56.631,83.74z" />
        <path d="M64.086,4.991H35.914c-4.941,0-8.961,4.02-8.961,8.961v72.095c0,4.941,4.02,8.963,8.961,8.963h28.172   c4.941,0,8.961-4.021,8.961-8.963V13.952C73.047,9.01,69.027,4.991,64.086,4.991z M70.217,86.047c0,3.381-2.75,6.133-6.131,6.133   H35.914c-3.381,0-6.131-2.752-6.131-6.133V13.952c0-3.381,2.75-6.131,6.131-6.131h28.172c3.381,0,6.131,2.75,6.131,6.131V86.047z" />
    </g>
    <text x="0" y="115" fill="#000000" font-size="5px" font-weight="bold" font-family="'Helvetica Neue', Helvetica, Arial-Unicode, Arial, Sans-serif">Created by Nikita Kozin</text>
    <text x="0" y="120" fill="#000000" font-size="5px" font-weight="bold" font-family="'Helvetica Neue', Helvetica, Arial-Unicode, Arial, Sans-serif">from the Noun Project</text>
</svg>
