<svg xmlns="http://www.w3.org/2000/svg" xmlns:xlink="http://www.w3.org/1999/xlink" version="1.1" x="0px" y="0px" viewBox="0 0 100 125" enable-background="new 0 0 100 100" xml:space="preserve"><g><path d="M75.779,17.684c3.402-2.063,6.615-4.013,7.236-8.373l0.008-0.114c0-4.068-2.314-4.507-3.309-4.507   c-0.239,0-0.491,0.021-0.77,0.068L66.227,7.224c-0.595-1.133-1.771-1.863-3.079-1.863H36.876c-1.3,0-2.471,0.722-3.069,1.845   L21.074,4.754c-0.259-0.043-0.511-0.064-0.75-0.064c-0.995,0-3.309,0.438-3.309,4.507l0.008,0.114   c0.62,4.36,3.833,6.311,7.235,8.374c4.22,2.56,8.584,5.207,9.14,12.866v6.191l-12.364-2.38c-0.259-0.043-0.511-0.064-0.75-0.064   c-0.995,0-3.309,0.438-3.309,4.506l0.008,0.115c0.62,4.361,3.833,6.311,7.235,8.374c4.343,2.634,8.833,5.357,9.179,13.556v5.241   l-12.364-2.379c-0.259-0.043-0.511-0.065-0.75-0.065c-0.995,0-3.309,0.439-3.309,4.507l0.008,0.115   c0.62,4.36,3.833,6.31,7.235,8.373c4.342,2.634,8.833,5.358,9.179,13.558v1.819c0,1.815,1.478,3.293,3.293,3.293h26.64   c1.814,0,3.292-1.478,3.292-3.293v-3.19c0.777-7.153,4.996-9.712,9.076-12.187c3.402-2.063,6.615-4.013,7.235-8.373l0.008-0.115   c0-4.067-2.313-4.507-3.309-4.507c-0.238,0-0.491,0.022-0.77,0.068l-12.241,2.357v-6.398c0.722-7.302,4.979-9.884,9.097-12.382   c3.402-2.063,6.617-4.011,7.236-8.372l0.008-0.115c0-4.067-2.313-4.506-3.309-4.506c-0.239,0-0.491,0.021-0.77,0.068l-12.263,2.362   l-0.002-5.924C67.119,22.934,71.521,20.265,75.779,17.684z M64.995,30.753v7.606l0.686,0.109c0.183,0.028,0.373,0.028,0.56-0.01   l12.936-2.489c0.171-0.029,0.331-0.044,0.48-0.044c0.413,0,1.663,0,1.68,2.82c-0.532,3.559-3.28,5.225-6.46,7.153   c-4.26,2.583-9.088,5.511-9.877,13.655l-0.004,8.179l0.711,0.091c0.165,0.02,0.332,0.017,0.513-0.017l12.936-2.489   c0.171-0.03,0.331-0.044,0.48-0.044c0.412,0,1.663,0,1.679,2.821c-0.531,3.558-3.278,5.225-6.458,7.151   c-4.221,2.561-9.004,5.462-9.855,13.45l-0.005,3.32c0,0.917-0.746,1.664-1.663,1.664h-26.64c-0.917,0-1.663-0.747-1.663-1.664   l-0.001-1.854c-0.385-9.106-5.474-12.193-9.964-14.917c-3.179-1.927-5.927-3.594-6.458-7.151c0.017-2.821,1.267-2.821,1.68-2.821   c0.149,0,0.309,0.014,0.461,0.039l12.955,2.494c0.256,0.05,0.507,0.038,0.741-0.031l0.587-0.17l-0.001-6.792   c-0.385-9.104-5.473-12.191-9.964-14.915c-3.179-1.929-5.927-3.594-6.458-7.153c0.017-2.82,1.267-2.82,1.68-2.82   c0.149,0,0.309,0.015,0.461,0.04l12.95,2.493c0.256,0.051,0.509,0.038,0.745-0.031l0.587-0.171l-0.002-7.765   c-0.619-8.558-5.562-11.556-9.922-14.201c-3.18-1.928-5.928-3.595-6.459-7.152c0.017-2.82,1.267-2.82,1.679-2.82   c0.149,0,0.309,0.014,0.46,0.039l12.957,2.494c0.331,0.062,0.648,0.025,0.939-0.106L35.008,8.6l0.114-0.34   c0.252-0.76,0.958-1.271,1.754-1.271h26.271c0.794,0,1.498,0.508,1.752,1.264l0.109,0.322l0.305,0.149   c0.303,0.147,0.637,0.194,0.985,0.127l12.936-2.49c0.171-0.029,0.331-0.043,0.48-0.043c0.412,0,1.663,0,1.679,2.82   c-0.531,3.558-3.279,5.224-6.459,7.152C70.535,18.958,65.548,21.982,64.995,30.753z"/><path id="green" d="M50.012,10.257c-5.858,0-10.624,4.766-10.624,10.623c0,5.858,4.766,10.624,10.624,10.624   c5.857,0,10.624-4.766,10.624-10.624C60.636,15.022,55.869,10.257,50.012,10.257z M50.012,29.874c-4.959,0-8.994-4.034-8.994-8.994   c0-4.959,4.035-8.993,8.994-8.993c4.958,0,8.994,4.034,8.994,8.993C59.006,25.84,54.971,29.874,50.012,29.874z"/><path id="yellow" d="M50.012,39.678c-5.858,0-10.624,4.765-10.624,10.623c0,5.857,4.766,10.623,10.624,10.623   c5.857,0,10.624-4.766,10.624-10.623C60.636,44.442,55.869,39.678,50.012,39.678z M50.012,59.294c-4.959,0-8.994-4.033-8.994-8.993   c0-4.959,4.035-8.994,8.994-8.994c4.958,0,8.994,4.035,8.994,8.994C59.006,55.261,54.971,59.294,50.012,59.294z"/><path id="red" d="M50.012,69.167c-5.858,0-10.624,4.766-10.624,10.623c0,5.858,4.766,10.624,10.624,10.624   c5.857,0,10.624-4.766,10.624-10.624C60.636,73.933,55.869,69.167,50.012,69.167z M50.012,88.784c-4.959,0-8.994-4.034-8.994-8.994   c0-4.959,4.035-8.994,8.994-8.994c4.958,0,8.994,4.035,8.994,8.994C59.006,84.75,54.971,88.784,50.012,88.784z"/></g><text x="0" y="115" fill="#000000" font-size="5px" font-weight="bold" font-family="'Helvetica Neue', Helvetica, Arial-Unicode, Arial, Sans-serif">Created by Nikita Kozin</text><text x="0" y="120" fill="#000000" font-size="5px" font-weight="bold" font-family="'Helvetica Neue', Helvetica, Arial-Unicode, Arial, Sans-serif">from the Noun Project</text></svg>